# xmcd CD database file
#
# Track frame offsets:
#	150
#	8990
#	30425
#	46223
#	68578
#	79040
#	96415
#	114718
#	135740
#	153115
#	161595
#	173150
#	184718
#	197190
#	210098
#	221735
#
# Disc length: 3281 seconds
#
# Revision: 0
# Processed by: cddbd v1.5.1PL0 Copyright (c) Steve Scherf et al.
# Submitted via: CDex 1.51
#
DISCID=cf0ccf10
DTITLE=Sint Joseph in't Bosch - Neu gheboren
DYEAR=1900
DGENRE=New Age
TTITLE0=Nieu  gheboren sach ick een kindeken cleene
TTITLE1=In desen cauden nacht
TTITLE2=Nato nobis Salvatore
TTITLE3=Dici solemnia - Fit porta Christi pervia
TTITLE4=Dies est laetitiae
TTITLE5=Herderkens, herderkens op den baen
TTITLE6=Ontwaeckt o tragen mensch
TTITLE7=Maeckt plaets o Herderkens comt uyt den stal
TTITLE8=Een kindeken is ons gheboren
TTITLE9=Resonet in laudibus
TTITLE10=Het quamen drie Koningen 
TTITLE11=Puer nobis nascitur
TTITLE12=Syr wellecom o Kintjen uytvercoren
TTITLE13=O salich heylich Bethlehem
TTITLE14=Hoe light ghy hier soo caut
TTITLE15=Willecom Kindeken Jesu soet
EXTD=
EXTT0=
EXTT1=
EXTT2=
EXTT3=
EXTT4=
EXTT5=
EXTT6=
EXTT7=
EXTT8=
EXTT9=
EXTT10=
EXTT11=
EXTT12=
EXTT13=
EXTT14=
EXTT15=
PLAYORDER=
